<svg version="1.2" xmlns="http://www.w3.org/2000/svg" viewBox="0 0 1562 275" width="1562" height="275">
	<title>New Project</title>
	<defs>
		<linearGradient id="g1" x2="1" gradientUnits="userSpaceOnUse" gradientTransform="matrix(248,248,-248,248,32.065,13)">
			<stop offset="0" stop-color="#212121"/>
			<stop offset="1" stop-color="#262626"/>
		</linearGradient>
	</defs>
	<style>
		.s0 { fill: #242424 } 
		.s1 { fill: url(#g1) } 
		.s2 { fill: none;stroke: #404040;stroke-linecap: round;stroke-width: 12 } 
		.s3 { fill: none;stroke: #5e5e5e;stroke-linecap: round;stroke-width: 12 } 
		.s4 { fill: none;stroke: #dddddd;stroke-linecap: round;stroke-width: 12 } 
		.s5 { fill: #ffffff } 
	</style>
	<g id="Light Mode">
		<path id="NeoRadar" class="s0" aria-label="NeoRadar"  d="m394.1 44.2l72.8 118v-118h38.2v183.8h-37.5l-72.7-118v118h-38.3v-183.8zm270.3 121.8v6.2h-96.5q1 15 9.3 23.5 8.2 8.6 21.9 8.6 19.4 0 25.8-17.3l36.2 2.5q-6.8 21.2-22.5 32.3-15.8 10.8-38.7 10.8-32.3 0-50.9-20.1-18.6-20.1-18.6-51.6 0-30.2 17.8-49.8 17.9-19.6 47.8-19.6 30.2 0 49.3 20.1 19.1 20.4 19.1 54.4zm-37.7-18.5q-1.5-14-9.3-21.7-7.7-7.8-20.1-7.8-12.4 0-20.4 7.8-8 8.2-9.3 21.7zm171.4 64.8q-18.8 20.1-49 20.1-30.2 0-49.1-20.1-19.1-19.9-19.1-50.4 0-30.2 19.1-50.6 19.1-19.8 49.1-19.8 29.9 0 49 19.8 19.1 20.4 19.1 50.6 0 30.5-19.1 50.4zm-82.1-50.4q0 19.4 9.1 30.7 9 11.4 24 11.4 15.2 0 24.2-11.4 8.8-11.1 8.8-30.7 0-19.6-8.8-30.7-9-11.4-24.2-11.4-15 0-24 11.4-9.1 11.4-9.1 30.7zm234.7-22.2q13.6 2.9 19.6 10.3 5.9 7.3 7.7 19.7l7.5 58.3h-39.2l-4.4-47.2q-1.3-12.7-7.8-18.4-6.2-5.6-20.1-5.6h-33.8v71.2h-38.2v-183.8h85.7q30.4 0 44.4 14.2 13.7 14.5 13.7 36.4 0 35.6-35.1 44.9zm-28.7-63.5h-41.8v49.6h36.6q15.8 0 23.5-6.7 8-7 8-19.1 0-11.1-6.7-17.3-6.4-6.5-19.6-6.5zm211.4 151.8h-36.9q-2.8-12.9-2.8-13.4-14.2 17.3-41.1 17.3-20.9 0-33.5-11.1-12.7-11.1-12.7-29.5 0-32.2 40.5-40.2l46.5-9.3v-9.8q0-14.5-22.5-14.5-11.1 0-16.7 4.2-5.7 4.1-7 13.4l-33.3-0.5q3.4-42.9 56.8-42.9 57.5 0 57.5 49.6v58.8q0 18.9 5.2 27.9zm-70.5-23q13.7 0 22-8 8.5-8.2 8.5-22.2v-9.8l-34.1 7.2q-17.3 3.4-17.3 16.8 0 7.3 5.5 11.6 5.6 4.4 15.4 4.4zm182.5-96.8v-64h36.4v183.8h-32.2l-1.3-16.5q-13.7 20.9-38.7 20.9-25.3 0-41.3-19.9-16-19.9-16-51.6 0-31.5 15.4-50.6 15.5-18.8 39-18.8 25.1 0 38.7 16.7zm-28.1 92.2q13.2 0 21.4-10.9 8.5-10.8 8.5-28.6 0-17.8-8.2-28.4-8.3-10.8-21.7-10.8-13.4 0-21.7 10.8-8.2 10.6-8.2 28.4 0 17.8 8.2 28.6 8.3 10.9 21.7 10.9zm213.5 27.6h-36.9q-2.9-12.9-2.9-13.4-14.2 17.3-41 17.3-20.9 0-33.6-11.1-12.6-11.1-12.6-29.5 0-32.2 40.5-40.2l46.5-9.3v-9.8q0-14.5-22.5-14.5-11.1 0-16.8 4.2-5.7 4.1-6.9 13.4l-33.3-0.5q3.3-42.9 56.7-42.9 57.6 0 57.6 49.6v58.8q0 18.9 5.2 27.9zm-70.5-23q13.7 0 21.9-8 8.6-8.2 8.6-22.2v-9.8l-34.1 7.2q-17.3 3.4-17.3 16.8 0 7.3 5.4 11.6 5.7 4.4 15.5 4.4zm161.6-114.8q6.4 0 11.6 1.8v33.3q-6.7-0.6-7.5-0.6-33 0-33 38.5v64.8h-36.4v-133.2h35.6l-0.5 17.8q8.8-22.4 30.2-22.4z"/>
		<g id="icon">
			<path fill-rule="evenodd" class="s1" d="m156.1 261c-68.6 0-124-55.4-124-124 0-68.6 55.4-124 124-124 68.5 0 124 55.4 124 124 0 68.6-55.5 124-124 124z"/>
			<path class="s2" d="m194 177.2c-16.4 15.5-40.4 19.4-61 10.3-20.5-9.2-33.4-29.9-32.6-52.5 0.5-22.3 14.6-42.3 35.7-50.2 21-8.1 44.8-2.6 60.1 13.8"/>
			<path class="s3" d="m178.8 161.1c-9.8 9.1-24.3 11.6-36.6 6-12.3-5.4-20.1-17.9-19.7-31.5 0.3-13.4 8.9-25.3 21.5-30 12.7-4.8 26.9-1.5 36.2 8.2"/>
			<path fill-rule="evenodd" class="s4" d="m209.3 193.4c-23 21.5-56.6 27.2-85.4 14.4-28.6-12.9-46.8-41.8-46-73.3 1-31.6 20.9-59.4 50.3-70.4 29.5-11.3 60.5-4.1 82.2 18.8 0 0 2 2 0 3.9-2.3 2-54.6 49.8-54.6 49.8"/>
			<path id="center-dot" fill-rule="evenodd" class="s5" d="m146.6 127.1c5.4-5.1 13.9-4.9 18.9 0.6 5.1 5.2 4.8 13.6-0.4 18.7-5.6 5.1-14 4.7-19-0.5-4.9-5.4-4.7-13.9 0.5-18.8z"/>
		</g>
	</g>
</svg>