<svg xmlns="http://www.w3.org/2000/svg" xmlns:xlink="http://www.w3.org/1999/xlink" viewBox="0 0 928.83 928.83">
    <defs>
      <style>
        .cls-1 {
          fill: url(#linear-gradient);
        }
  
        .cls-2 {
          fill: #fff;
          filter: url(#drop-shadow-1);
        }
  
        .cls-3 {
          opacity: .05;
          fill: url(#linear-gradient-2);
          stroke-miterlimit: 10;
          stroke-width: 20px;
        }
      </style>
      <linearGradient id="linear-gradient" x1="136.37" y1="675.92" x2="917.11" y2="172.55" gradientUnits="userSpaceOnUse">
        <stop offset="0" stop-color="#0b132f"/>
        <stop offset=".4" stop-color="#12163d"/>
        <stop offset="7" stop-color="#211d5c"/>
      </linearGradient>
      <filter id="drop-shadow-1" filterUnits="userSpaceOnUse">
        <feOffset dx="5" dy="5"/>
        <feGaussianBlur result="blur" stdDeviation="5"/>
        <feFlood flood-color="#969796" flood-opacity=".5"/>
        <feComposite in2="blur" operator="in"/>
        <feComposite in="SourceGraphic"/>
      </filter>
      <linearGradient id="linear-gradient-2" x1="190.96" y1="464.42" x2="737.87" y2="464.42" gradientUnits="userSpaceOnUse">
        <stop offset="0" stop-color="#8fb8e2"/>
        <stop offset=".33" stop-color="#9dc4e5"/>
        <stop offset=".95" stop-color="#c4e6f0"/>
        <stop offset="1" stop-color="#c8e9f1"/>
      </linearGradient>
    </defs>
    <g id="Layer_2" data-name="Layer 2">
      <rect class="cls-1" x="0" y="0" width="928.83" height="928.83" rx="464.42" ry="464.42"/>
    </g>
    <g id="Layer_1" data-name="Layer 1">
      <path class="cls-2" d="M490.99,149.2c5.78,.82,10.96,1.84,16.19,2.43,23.6,2.64,46.28,8.9,68.53,16.97,22.62,8.2,43.86,19.24,63.8,32.5,18.14,12.07,35.4,25.55,49.81,42.05,6.66,7.63,5.98,15.96-2.32,26.43-.89,1.12-2.02,2.04-3.03,3.05-49.04,49.04-98.08,98.09-147.14,147.11-1.59,1.58-3.43,2.91-5.25,4.45,11.83,19.54,14.11,40.04,8.58,60.99-4.68,17.75-14.58,32.7-30.03,43.22-34.43,23.43-76.39,17.8-102.37-9.64-27.15-28.68-29.28-68.99-6.75-100.71,21.45-30.2,64.87-42.93,102.54-21.6,19.2-19.2,38.32-38.31,58.58-58.57-11.81-6.57-23.42-14.26-35.99-19.73-21.29-9.27-43.84-13.58-67.23-12.58-28.2,1.2-54.41,9.13-78.17,24.26-9.4,5.98-18.59,12.72-26.54,20.47-20.15,19.65-34.49,43.14-42.36,70.31-4.68,16.13-6.88,32.61-6.19,49.42,1.17,28.2,9.12,54.4,24.27,78.16,5.99,9.4,12.71,18.59,20.47,26.54,19.66,20.14,43.14,34.47,70.32,42.34,16.13,4.67,32.61,6.88,49.42,6.18,28.2-1.18,54.4-9.12,78.15-24.3,9.39-6,18.59-12.71,26.54-20.47,20.13-19.67,34.47-43.15,42.31-70.34,4.25-14.72,6.35-29.73,6.29-45.11-.05-10.54,8.26-17.13,20.35-17.09,9.77,.04,17.46,7.5,17.71,17.36,.43,17.6-1.91,34.99-6.37,51.89-7.21,27.32-20.09,52.04-37.87,74.01-14.93,18.46-33.01,33.27-53.52,45.33-19.51,11.48-40.13,19.81-62.49,23.05-14.14,2.05-28.5,3.71-42.74,3.6-23.66-.19-46.55-5.29-68.55-14.36-20.44-8.43-38.77-19.95-55.38-34.54-25.12-22.06-43.48-48.52-54.89-80-5.94-16.41-9.41-33.11-11.13-50.48-3.99-40.31,4.27-77.97,23.78-113.01,6.92-12.43,16.23-23.63,25.14-34.84,17.28-21.74,39.82-36.91,64.63-48.61,16.68-7.86,34.22-13.68,52.76-15.42,12.28-1.15,24.63-2.58,36.92-2.33,23.27,.47,45.73,5.41,67.32,14.43,17.16,7.17,33.33,15.81,47.49,27.98,.72,.62,1.78,.84,2.21,1.03,18.78-18.78,37.55-37.55,57.25-57.25-10.78-7.68-21.62-15.73-32.79-23.3-23.13-15.67-48.69-26.35-75.37-33.89-14.49-4.09-29.67-6.39-44.7-7.75-16.83-1.52-33.92-2.36-50.74-1.19-26.02,1.8-51.38,7.71-75.88,17.05-21.38,8.15-41.49,18.66-60.16,31.84-18.51,13.07-35.39,27.91-50.37,45.1-16.89,19.38-31.14,40.39-42.11,63.51-10.97,23.11-18.49,47.36-23.05,72.7-4.12,22.87-3.89,45.77-3.15,68.66,.43,13.27,3.09,26.61,6.07,39.62,5.21,22.78,13.12,44.71,24.09,65.43,10.47,19.78,23.09,38.03,37.68,55.08,19.86,23.2,43.25,42.04,69.25,57.56,24.56,14.67,51.2,24.54,79.09,31.17,27.51,6.54,55.5,7.69,83.35,5.75,31-2.16,60.92-10.14,89.46-23,25.79-11.62,49.09-26.8,70.47-45.3,24.44-21.16,43.89-46.09,59.94-74.01,12.02-20.91,20.66-43.21,26.59-66.34,5.23-20.38,8.52-41.29,7.96-62.61-.19-7.28,.57-14.96,6.96-20.17,8.38-6.83,25.54-5.71,30.64,7.21,.43,11.22,.43,22.33-.07,34.21-1.88,12.33-2.18,24.15-4.91,35.39-4.32,17.82-9.78,35.4-15.64,52.78-7.44,22.06-19.02,42.19-31.78,61.53-14.33,21.72-31.74,40.97-51.04,58.33-11.44,10.28-23.56,20.02-36.34,28.55-19.91,13.3-41.16,24.34-63.78,32.54-22.25,8.07-44.93,14.33-68.53,16.97-5.23,.59-10.41,1.61-15.62,2.43-17.67,0-35.35,0-53.8-.5-5.58-.99-10.47-1.08-15.18-2.03-17.07-3.47-34.25-6.62-51.08-11.03-22.05-5.78-42.64-15.31-62.47-26.59-21.44-12.19-41.43-26.3-59.16-43.44-9.07-8.77-17.89-17.87-26.12-27.43-8.06-9.37-15.84-19.1-22.64-29.4-13.09-19.81-24.74-40.56-32.04-63.25-5.67-17.63-10.11-35.67-14.82-53.6-2.03-7.72-3.35-15.64-4.99-23.46,0-23.42,0-46.84,.47-71,.98-2.23,1.64-3.69,1.97-5.23,3.72-17.23,6.58-34.69,11.25-51.66,8.78-31.92,23.99-60.91,42.78-88.09,14.25-20.62,31.4-38.69,49.74-55.54,10.55-9.69,22.2-18.34,34.13-26.31,19.91-13.3,41.15-24.3,63.72-32.52,22.22-8.09,44.89-14.32,68.47-16.93,5.23-.58,10.4-1.61,15.6-2.43,17.67,0,35.35,0,53.6,0Z"/>
      <path class="cls-3" d="M486.63,200.91c4.83,.69,9.16,1.54,13.54,2.03,19.73,2.21,38.69,7.44,57.29,14.18,18.9,6.85,36.67,16.08,53.33,27.17,15.16,10.09,29.59,21.36,41.63,35.15,5.57,6.38,5,13.34-1.94,22.09-.74,.93-1.69,1.71-2.53,2.55-41,41-81.99,82-123,122.97-1.33,1.32-2.86,2.44-4.39,3.72,9.89,16.34,11.79,33.47,7.17,50.98-3.91,14.84-12.19,27.34-25.1,36.13-28.78,19.59-63.85,14.88-85.57-8.06-22.7-23.97-24.48-57.67-5.64-84.19,17.93-25.25,54.23-35.89,85.72-18.06,16.05-16.05,32.03-32.03,48.97-48.96-9.87-5.49-19.58-11.92-30.09-16.49-17.8-7.75-36.65-11.35-56.2-10.52-23.58,1.01-45.48,7.63-65.35,20.28-7.86,5-15.54,10.63-22.18,17.11-16.85,16.43-28.83,36.06-35.41,58.78-3.91,13.48-5.75,27.26-5.17,41.31,.98,23.57,7.63,45.48,20.29,65.34,5.01,7.85,10.63,15.54,17.11,22.18,16.44,16.83,36.06,28.82,58.79,35.4,13.49,3.91,27.26,5.75,41.32,5.16,23.57-.99,45.48-7.63,65.33-20.31,7.85-5.02,15.54-10.63,22.18-17.11,16.83-16.44,28.81-36.07,35.37-58.8,3.55-12.31,5.31-24.85,5.26-37.71-.04-8.81,6.91-14.32,17.01-14.28,8.17,.03,14.6,6.27,14.8,14.51,.36,14.71-1.6,29.25-5.32,43.38-6.03,22.84-16.8,43.5-31.66,61.87-12.48,15.43-27.6,27.81-44.74,37.89-16.31,9.59-33.54,16.56-52.24,19.27-11.82,1.71-23.82,3.1-35.73,3.01-19.78-.16-38.91-4.42-57.31-12-17.09-7.04-32.41-16.68-46.3-28.87-21-18.44-36.35-40.56-45.88-66.88-4.97-13.71-7.86-27.67-9.3-42.19-3.34-33.69,3.57-65.18,19.88-94.47,5.79-10.39,13.57-19.75,21.02-29.12,14.45-18.17,33.29-30.86,54.03-40.63,13.94-6.57,28.61-11.43,44.1-12.89,10.26-.96,20.59-2.16,30.86-1.95,19.45,.39,38.23,4.52,56.28,12.06,14.34,5.99,27.86,13.22,39.7,23.39,.6,.52,1.48,.7,1.85,.86,15.7-15.7,31.39-31.39,47.86-47.85-9.01-6.42-18.07-13.15-27.41-19.48-19.33-13.1-40.7-22.03-63.01-28.33-12.11-3.42-24.8-5.34-37.36-6.48-14.07-1.27-28.36-1.97-42.41-.99-21.75,1.51-42.95,6.45-63.43,14.26-17.88,6.81-34.69,15.6-50.29,26.62-15.48,10.93-29.59,23.33-42.11,37.7-14.12,16.2-26.04,33.77-35.2,53.09-9.17,19.32-15.45,39.59-19.27,60.78-3.44,19.12-3.25,38.26-2.63,57.39,.36,11.09,2.58,22.25,5.07,33.12,4.36,19.04,10.97,37.38,20.13,54.7,8.75,16.54,19.3,31.79,31.5,46.04,16.6,19.39,36.16,35.14,57.89,48.12,20.53,12.26,42.8,20.51,66.11,26.05,23,5.46,46.39,6.43,69.67,4.81,25.91-1.8,50.92-8.48,74.78-19.23,21.56-9.71,41.04-22.4,58.91-37.87,20.43-17.68,36.69-38.53,50.11-61.87,10.05-17.48,17.27-36.12,22.23-55.46,4.37-17.03,7.12-34.52,6.65-52.34-.16-6.09,.47-12.51,5.82-16.86,7.01-5.71,21.35-4.78,25.61,6.03,.36,9.38,.36,18.66-.06,28.6-1.58,10.31-1.83,20.19-4.1,29.58-3.61,14.89-8.17,29.59-13.07,44.12-6.22,18.44-15.9,35.27-26.56,51.43-11.98,18.15-26.53,34.25-42.66,48.76-9.56,8.6-19.7,16.73-30.38,23.87-16.65,11.11-34.41,20.34-53.31,27.2-18.6,6.74-37.56,11.98-57.29,14.18-4.37,.49-8.7,1.34-13.05,2.03-14.77,0-29.55,0-44.97-.42-4.67-.82-8.75-.9-12.69-1.7-14.27-2.9-28.63-5.53-42.7-9.22-18.43-4.83-35.64-12.8-52.22-22.23-17.92-10.19-34.63-21.99-49.45-36.31-7.58-7.33-14.96-14.94-21.83-22.93-6.74-7.83-13.24-15.97-18.93-24.58-10.94-16.56-20.68-33.9-26.79-52.88-4.74-14.74-8.45-29.82-12.39-44.81-1.7-6.46-2.8-13.07-4.17-19.61,0-19.58,0-39.16,.39-59.35,.82-1.86,1.37-3.09,1.65-4.37,3.11-14.4,5.5-29,9.4-43.18,7.34-26.69,20.05-50.91,35.76-73.64,11.92-17.24,26.25-32.35,41.58-46.43,8.82-8.1,18.56-15.33,28.53-21.99,16.65-11.12,34.4-20.31,53.27-27.18,18.57-6.76,37.53-11.97,57.24-14.15,4.37-.48,8.69-1.34,13.04-2.03,14.78,0,29.55,0,44.81,0Z"/>
    </g>
  </svg>